# xmcd
#
# Track frame offsets: 
#        150
#        24435
#        47114
#        67854
#        103182
#        125964
#        140127
#        187578
#        212250
#        227213
#        239938
#        264089
#        282514
#        304206
#        319653
#
# Disc length: 4504 seconds
#
# Revision: 0
# Processed by: cddbd v1.5.2PL0 Copyright (c) Steve Scherf et al.
# Submitted via: ExactAudioCopy v0.99pb4
#
DISCID=de11960f
DTITLE=Kirk Fletcher - I'm Here and I'm Gone
DYEAR=2009
DGENRE=Blues
TTITLE0=I Ain't Doing Nothing Wrong 
TTITLE1=What Is Going On 
TTITLE2=Church Street Boogie 
TTITLE3=I'm Not Your Fool 
TTITLE4=What Happened to You 
TTITLE5=School Street Shuffle 
TTITLE6=Silver Spoon 
TTITLE7=You Went Back on Your Word 
TTITLE8=Mr. Mann 
TTITLE9=Bye Bye So Long 
TTITLE10=Watsonized 
TTITLE11=Worried All the Time [Kirk Fletcher's Demo Sides] 
TTITLE12=I Smell Trouble [Kirk Fletcher's Demo Sides] 
TTITLE13=Next Time You See Me [Kirk Fletcher's Demo Sides] 
TTITLE14=Watsonized [Kirk Fletcher's Demo Sides]
EXTD=
EXTT0=
EXTT1=
EXTT2=
EXTT3=
EXTT4=
EXTT5=
EXTT6=
EXTT7=
EXTT8=
EXTT9=
EXTT10=
EXTT11=
EXTT12=
EXTT13=
EXTT14=
PLAYORDER=
